<svg viewBox="0 248.216 612 282.12" id="icon-logo" xmlns="http://www.w3.org/2000/svg"><path d="M584.522 501.913v23.989a19.19 19.19 0 0 1-4.071 1.89 32.326 32.326 0 0 1-4.725 1.381 54.1 54.1 0 0 1-4.943.872 36.396 36.396 0 0 1-4.725.291c-4.144 0-7.778-.654-11.05-2.035-3.198-1.381-5.961-3.198-8.142-5.598-2.253-2.326-3.926-5.016-5.088-8.142-1.164-3.053-1.745-6.324-1.745-9.813 0-3.635.654-6.979 1.89-10.104 1.236-3.126 2.98-5.816 5.234-8.069a24.566 24.566 0 0 1 7.996-5.379c3.126-1.309 6.542-1.963 10.25-1.963 4.507 0 8.142.581 10.977 1.672 2.835 1.09 5.233 2.689 7.123 4.652l-4.652 5.016c-2.035-1.89-4.143-3.271-6.396-3.998s-4.58-1.163-7.051-1.163c-2.763 0-5.307.509-7.561 1.526s-4.144 2.399-5.742 4.144c-1.6 1.745-2.836 3.78-3.708 6.106s-1.309 4.87-1.309 7.487c0 2.762.509 5.307 1.454 7.633s2.326 4.434 3.998 6.179a17.747 17.747 0 0 0 5.961 4.07c2.254 1.019 4.798 1.454 7.487 1.454a32.42 32.42 0 0 0 6.615-.654c2.108-.436 3.853-1.09 5.307-1.89v-13.376h-10.759v-6.179h17.375zm-154.253-21.444h8.65l26.751 39.981h.146v-39.981h6.614v48.632h-8.359l-27.042-39.981h-.146v39.981h-6.614v-48.632zm-77.273 0h6.615v48.632h-6.615v-48.632zm-120.961 0h9.813l15.483 36.783h.291l15.338-36.783h9.813v48.632h-6.615V489.12h-.146l-16.429 39.981h-4.361l-16.429-39.981h-.145v39.981h-6.615v-48.632h.002zm-90.793 0h5.96l20.79 48.632h-7.705l-4.871-11.994H132.3l-4.798 11.994h-7.706l21.446-48.632zm11.776 30.822l-9.086-22.317h-.146l-9.232 22.317h18.464zm-97.263-9.378v23.989a19.166 19.166 0 0 1-4.071 1.89 32.326 32.326 0 0 1-4.725 1.381 54.04 54.04 0 0 1-4.943.872 36.396 36.396 0 0 1-4.725.291c-4.144 0-7.778-.654-11.049-2.035-3.199-1.381-5.961-3.198-8.142-5.598-2.253-2.326-3.925-5.016-5.088-8.142-1.163-3.053-1.745-6.324-1.745-9.813 0-3.635.654-6.979 1.89-10.104 1.236-3.126 2.98-5.816 5.234-8.069a24.57 24.57 0 0 1 7.997-5.379c3.125-1.309 6.542-1.963 10.25-1.963 4.507 0 8.142.581 10.977 1.672 2.835 1.09 5.234 2.689 7.124 4.652l-4.652 5.016c-2.036-1.89-4.144-3.271-6.397-3.998s-4.58-1.163-7.051-1.163c-2.762 0-5.307.509-7.56 1.526s-4.144 2.399-5.743 4.144c-1.599 1.745-2.835 3.78-3.708 6.106-.872 2.326-1.309 4.87-1.309 7.487 0 2.762.509 5.307 1.454 7.633s2.253 4.434 3.998 6.179a17.757 17.757 0 0 0 5.961 4.07c2.253 1.019 4.797 1.454 7.487 1.454a32.42 32.42 0 0 0 6.615-.654c2.108-.436 3.853-1.09 5.307-1.89v-13.376H38.382v-6.179h17.373zm31.549-213.571c25.661 0 48.486 11.921 63.243 30.604l-20.572 35.329c-6.106-17.665-22.898-30.386-42.671-30.386-23.916 0-43.47 18.609-45.069 42.162v3.053h-.073c0 24.934 20.208 45.215 45.215 45.215 66.659 0 45.506-125.903 141.824-125.903 44.561 0 80.762 36.128 80.762 80.761 0 5.016-.437 9.959-1.381 14.757h-122.27l1.309 2.908c6.906 16.21 22.898 27.551 41.58 27.551 13.521 0 25.661-5.961 33.947-15.411l26.751 23.407c-14.829 16.864-36.492 27.551-60.771 27.551-25.878 0-48.922-12.213-63.679-31.113l32.639-64.405h73.783c-6.106-17.737-22.898-30.458-42.743-30.458-66.296 0-44.052 125.904-141.824 125.904-44.633-.072-80.761-36.201-80.761-80.834v-120.67h35.692v53.72c12.866-8.726 28.349-13.742 45.069-13.742"></path><path d="M372.404 288.342c16.72 0 32.203 5.088 45.07 13.739v-53.865h35.691v42.525l-17.519 28.132-18.173 31.258-2.399 4.144c-6.106-17.665-22.898-30.386-42.671-30.386-24.934 0-45.215 20.209-45.215 45.215 0 24.934 20.209 45.215 45.215 45.215 66.66 0 47.105-125.903 141.824-125.903 44.561 0 80.762 36.128 80.762 80.761 0 5.016-.437 9.959-1.382 14.757H471.484l.581 1.599c6.542 16.864 22.971 28.786 42.089 28.786 13.521 0 25.661-5.961 33.948-15.41l28.204 21.662c-14.829 17.882-37.146 29.295-62.225 29.295-25.879 0-48.922-12.212-63.679-31.112l31.984-64.406h74.438c-6.106-17.737-22.898-30.458-42.743-30.458-66.296 0-42.089 125.904-141.823 125.904-44.561 0-80.762-36.129-80.762-80.762.147-44.562 36.348-80.69 80.908-80.69"></path></svg>
